<mxfile host="65bd71144e">
    <diagram id="5TcIk0fQEQtuzmgpce5a" name="Page-1">
        <mxGraphModel dx="219" dy="773" grid="1" gridSize="10" guides="1" tooltips="1" connect="1" arrows="1" fold="1" page="1" pageScale="1" pageWidth="850" pageHeight="1100" math="0" shadow="0">
            <root>
                <mxCell id="0"/>
                <mxCell id="1" parent="0"/>
                <mxCell id="2" value="" style="ellipse;whiteSpace=wrap;html=1;" vertex="1" parent="1">
                    <mxGeometry x="100" y="100" width="120" height="80" as="geometry"/>
                </mxCell>
                <mxCell id="3" value="" style="shape=document;whiteSpace=wrap;html=1;boundedLbl=1;" vertex="1" parent="1">
                    <mxGeometry x="150" y="340" width="120" height="80" as="geometry"/>
                </mxCell>
            </root>
        </mxGraphModel>
    </diagram>
</mxfile>